<svg width="20" height="20" viewBox="0 0 20 20" fill="none" xmlns="http://www.w3.org/2000/svg">
<path d="M10.0234 10.0013C10.0234 8.16035 11.5158 6.66797 13.3568 6.66797C15.1977 6.66797 16.6901 8.16039 16.6901 10.0013C16.6901 11.8423 15.1977 13.3346 13.3568 13.3346C11.5158 13.3346 10.0234 11.8422 10.0234 10.0013Z" fill="#00BCFF"/>
<path d="M3.35645 16.6657C3.35645 14.8248 4.84883 13.3324 6.68977 13.3324L8.46613 12.3945L10.0231 13.3324V16.6657C10.0231 18.5067 8.5307 19.999 6.68977 19.999C4.84883 19.999 3.35645 18.5066 3.35645 16.6657Z" fill="#00CF7F"/>
<path d="M10.0228 0L8.20898 3.15117L10.0228 6.66664H13.3094C15.1504 6.66664 16.6427 5.17426 16.6427 3.33332C16.6427 1.49238 15.1503 0 13.3094 0H10.0228Z" fill="#FF7361"/>
<path d="M3.30957 3.33332C3.30957 5.17426 4.80195 6.66664 6.64289 6.66664L8.41113 7.34961L10.023 6.66664V0H6.64285C4.80195 0 3.30957 1.49238 3.30957 3.33332Z" fill="#FF4D12"/>
<path d="M3.35645 10.0013C3.35645 11.8423 4.84883 13.3346 6.68977 13.3346H10.0231V6.66797H6.68977C4.84883 6.66797 3.35645 8.16039 3.35645 10.0013Z" fill="#B659FF"/>
</svg>
