<svg width="28" height="28" viewBox="0 0 28 28" fill="none" xmlns="http://www.w3.org/2000/svg">
<rect width="28" height="28" rx="14" fill="white"/>
<path d="M14.0186 13.9987C14.0186 12.5259 15.2125 11.332 16.6852 11.332C18.158 11.332 19.3519 12.526 19.3519 13.9987C19.3519 15.4715 18.1579 16.6653 16.6852 16.6653C15.2124 16.6653 14.0186 15.4714 14.0186 13.9987Z" fill="#00BCFF"/>
<path d="M8.68457 19.3349C8.68457 17.8622 9.87848 16.6683 11.3512 16.6683L12.7723 15.918L14.0179 16.6683V19.3349C14.0179 20.8077 12.824 22.0016 11.3512 22.0016C9.87848 22.0016 8.68457 20.8077 8.68457 19.3349Z" fill="#00CF7F"/>
<path d="M14.0184 6L12.5674 8.52094L14.0184 11.3333H16.6477C18.1205 11.3333 19.3144 10.1394 19.3144 8.66666C19.3144 7.19391 18.1204 6 16.6477 6H14.0184Z" fill="#FF7361"/>
<path d="M8.64746 8.66666C8.64746 10.1394 9.84137 11.3333 11.3141 11.3333L12.7287 11.8797L14.0182 11.3333V6H11.3141C9.84137 6 8.64746 7.19391 8.64746 8.66666Z" fill="#FF4D12"/>
<path d="M8.68457 13.9987C8.68457 15.4715 9.87848 16.6654 11.3512 16.6654H14.0179V11.332H11.3512C9.87848 11.332 8.68457 12.526 8.68457 13.9987Z" fill="#B659FF"/>
</svg>
