<svg width="20" height="20" viewBox="0 0 20 20" fill="none" xmlns="http://www.w3.org/2000/svg">
<path d="M12.9427 15.8077C13.0007 15.8657 13.0468 15.9347 13.0782 16.0105C13.1097 16.0864 13.1258 16.1677 13.1258 16.2499C13.1258 16.332 13.1097 16.4133 13.0782 16.4892C13.0468 16.565 13.0007 16.634 12.9427 16.692C12.8846 16.7501 12.8157 16.7962 12.7398 16.8276C12.6639 16.859 12.5826 16.8752 12.5005 16.8752C12.4184 16.8752 12.3371 16.859 12.2612 16.8276C12.1853 16.7962 12.1164 16.7501 12.0583 16.692L5.8083 10.442C5.75019 10.384 5.70409 10.3151 5.67264 10.2392C5.64119 10.1633 5.625 10.082 5.625 9.99986C5.625 9.91772 5.64119 9.8364 5.67264 9.76052C5.70409 9.68465 5.75019 9.61572 5.8083 9.55767L12.0583 3.30767C12.1756 3.1904 12.3346 3.12451 12.5005 3.12451C12.6663 3.12451 12.8254 3.1904 12.9427 3.30767C13.06 3.42495 13.1258 3.58401 13.1258 3.74986C13.1258 3.91571 13.06 4.07477 12.9427 4.19205L7.13409 9.99986L12.9427 15.8077Z" fill="#6A0BFF"/>
</svg>
